<?xml version="1.0" encoding="UTF-8"?>
<svg id="Layer_1" data-name="Layer 1" xmlns="http://www.w3.org/2000/svg" version="1.1" viewBox="0 0 543.58 138.31">
  <defs>
    <style>
      .cls-1, .cls-2 {
        fill: #cb2128;
      }

      .cls-1, .cls-2, .cls-3 {
        stroke-width: 0px;
      }

      .cls-1, .cls-3 {
        fill-rule: evenodd;
      }

      .cls-3 {
        fill: #fff;
      }
    </style>
  </defs>
  <g>
    <g id="HATCH">
      <polygon class="cls-3" points="59.52 35.34 80.56 35.34 80.56 55.78 59.52 55.78 59.52 35.34 59.52 35.34"/>
    </g>
    <g id="HATCH-2" data-name="HATCH">
      <path class="cls-1" d="M59.06,0v31.89c-20.32,5.78-32.11,26.95-26.33,47.27,5.79,20.32,26.95,32.1,47.28,26.32,20.32-5.78,32.11-26.95,26.32-47.27-3.57-12.54-13.28-22.39-25.77-26.16l-.04-31.98c29.86,4.77,53.23,28.29,57.79,58.19,5.8,37.97-20.28,73.45-58.25,79.25C42.09,143.3,6.61,117.22.81,79.24-4.99,41.28,21.09,5.8,59.06,0h0Z"/>
    </g>
  </g>
  <g>
    <g id="HATCH-3" data-name="HATCH">
      <path class="cls-3" d="M205.78,53.02l-9.21,25.09h17.86l-8.65-25.09h0ZM192.31,33.18h27.27l31.01,72.5h-26.43l-4.05-11.62h-28.77l-4.11,11.55h-25.87l30.96-72.43h0Z"/>
    </g>
    <g id="HATCH-4" data-name="HATCH">
      <polygon class="cls-3" points="236.13 33.33 325.52 33.33 325.52 55.43 291.36 55.43 291.36 105.8 269.65 105.8 269.65 55.66 236.13 55.66 236.13 33.33 236.13 33.33"/>
    </g>
    <g id="HATCH-5" data-name="HATCH">
      <path class="cls-3" d="M498.47,53.02l-9.21,25.09h17.85l-8.64-25.09h0ZM484.99,33.18h27.27l31.01,72.5h-26.44l-4.05-11.62h-28.77l-4.11,11.55h-25.87l30.96-72.43h0ZM452.02,33.29v16.12h-67.31v12.2h46.21c9.25,0,17.61,5.47,21.31,13.95v14.8c-2.69,8.73-10.54,14.83-19.66,15.29h-69.67v-16.2h66.73v-11.46h-48.45c-8.58-1.39-15.71-7.38-18.53-15.6v-14.34c3.25-8.18,10.78-13.86,19.54-14.75h69.83ZM333.45,33.54h22.29v72h-22.29V33.54h0Z"/>
    </g>
  </g>
  <g>
    <path class="cls-2" d="M397.53,131.91h6.11l-3.26-5.94c1.37-.32,3.24-1.46,3.24-5.11v-3.61c0-1.47-.23-5.23-4.22-5.23h-19.56v19.89h6.1v-5.82h8.4l3.2,5.82ZM385.94,116.97h11.58v4.66h-11.58v-4.66Z"/>
    <path class="cls-2" d="M540.34,125.97c1.37-.32,3.24-1.46,3.24-5.11v-3.61c0-1.47-.23-5.23-4.22-5.23h-19.56v19.89h6.1v-5.82s14.45-.12,14.45-.12ZM525.9,116.97h11.58v4.66h-11.58v-4.66Z"/>
    <path class="cls-2" d="M350.87,121.82h6.24v5.5c0,.91-.42,1.9-1.27,3-.85,1.03-1.87,1.54-3.07,1.54h-15.14c-1.18,0-2.2-.51-3.04-1.54-.83-1.01-1.24-2.25-1.24-3.74v-9.26c0-1.44.41-2.67,1.24-3.68.84-1.03,1.86-1.54,3.04-1.54h19.47v4.88h-17.55v9.88h11.31v-5.03Z"/>
    <path class="cls-2" d="M448.94,113.62c.84,1.03,1.27,2.25,1.27,3.67v9.35c0,1.42-.42,2.65-1.27,3.67-.82,1.01-1.85,1.51-3.06,1.51h-15.19c-1.2,0-2.21-.5-3.03-1.51-.83-1.01-1.24-2.23-1.24-3.67v-9.35c0-1.44.41-2.67,1.24-3.67.82-1.01,1.84-1.51,3.03-1.51h15.19c1.21,0,2.23.5,3.06,1.51ZM444.06,117.02h-11.53v9.91h11.53v-9.91Z"/>
    <path class="cls-2" d="M479.27,126.89h11.58v-14.72h6.12v19.6h-19.63c-1.17,0-2.17-.5-3-1.5-.85-1.02-1.27-2.24-1.27-3.65v-14.45h6.2v14.72Z"/>
  </g>
</svg>